<svg width="319" height="414" viewBox="0 0 319 414" fill="none" xmlns="http://www.w3.org/2000/svg">
<path d="M106.048 60.4955L106.072 60.4805C115.44 54.4807 129.631 42.3273 141.358 31.0948C147.254 25.4474 152.647 19.9182 156.6 15.3787C158.567 13.12 160.257 11.0154 161.484 9.20914C161.734 8.84253 161.975 8.47156 162.203 8.09946C163.833 10.1046 165.939 12.9771 168.557 16.8625L168.561 16.8698L168.566 16.877C174.154 25.1086 182.747 34.6099 191.498 42.8599C200.188 51.0538 209.456 58.4142 216.502 62.0928C218.69 63.2517 220.876 64.6036 222.612 65.8337C223.482 66.4505 224.189 67.0019 224.705 67.4513C224.849 67.5765 224.964 67.6815 225.053 67.7664C225.133 68.1333 225.226 68.6509 225.326 69.3348C225.564 70.9614 225.798 73.2242 226.003 75.9932C226.412 81.5141 226.688 88.7959 226.688 96.5146V124.742V129.167L231.081 129.705L244.779 131.382L244.792 131.383L244.805 131.385C269.502 134.274 294.814 151.479 305.487 172.247C307.495 176.416 309.847 186.11 311.593 197.107C313.321 207.99 314.301 219.151 313.918 225.877C313.57 230.84 310.499 238.807 305.496 247.44C300.578 255.927 294.231 264.307 288.105 270.043C273.782 283.299 258.508 290.42 239.056 293.352C239.054 293.352 239.052 293.352 239.05 293.352L223.967 295.586L219.7 296.219V300.533V326.803C219.7 334.044 219.63 341.126 219.492 346.697C219.422 349.485 219.336 351.865 219.236 353.684C219.185 354.595 219.132 355.335 219.079 355.899C219.061 356.096 219.044 356.254 219.029 356.378C218.987 356.426 218.938 356.48 218.882 356.54C218.369 357.087 217.515 357.839 216.309 358.732C213.917 360.502 210.58 362.5 206.94 364.19L206.903 364.206L206.868 364.224C197.423 368.793 184.639 379.061 172.999 391.265L172.988 391.276L172.978 391.287L158.717 406.422L153.659 400.224M153.659 400.224C153.657 400.222 153.656 400.22 153.654 400.219L153.659 400.224Z" stroke="#FFC809" stroke-width="10"/>
<path d="M27.2966 219V196.44H42.0806V199.096H30.5286V206.2H41.3446V208.888H30.5286V216.312H42.0806V219H27.2966ZM45.7556 211.512V208.92H55.1316V211.512H45.7556ZM59.7274 219V195.448H62.9594V219H59.7274ZM75.1521 219.288C72.5495 219.288 70.5015 218.552 69.0081 217.08C67.5148 215.608 66.7681 213.571 66.7681 210.968C66.7681 209.283 67.0881 207.811 67.7281 206.552C68.3895 205.293 69.2961 204.323 70.4481 203.64C71.6215 202.936 72.9761 202.584 74.5121 202.584C76.0268 202.584 77.2961 202.904 78.3201 203.544C79.3441 204.184 80.1228 205.091 80.6561 206.264C81.1895 207.416 81.4561 208.781 81.4561 210.36V211.384H69.2961V209.528H79.2481L78.7041 209.944C78.7041 208.344 78.3415 207.107 77.6161 206.232C76.9121 205.336 75.8881 204.888 74.5441 204.888C73.0508 204.888 71.8988 205.411 71.0881 206.456C70.2775 207.48 69.8721 208.899 69.8721 210.712V211.032C69.8721 212.931 70.3308 214.36 71.2481 215.32C72.1868 216.28 73.5095 216.76 75.2161 216.76C76.1548 216.76 77.0295 216.632 77.8401 216.376C78.6721 216.099 79.4615 215.651 80.2081 215.032L81.2641 217.24C80.5175 217.901 79.6108 218.413 78.5441 218.776C77.4775 219.117 76.3468 219.288 75.1521 219.288ZM91.3409 219.288C89.9115 219.288 88.6635 218.957 87.5969 218.296C86.5302 217.635 85.6982 216.675 85.1009 215.416C84.5249 214.157 84.2369 212.664 84.2369 210.936C84.2369 209.187 84.5249 207.693 85.1009 206.456C85.6982 205.219 86.5302 204.269 87.5969 203.608C88.6635 202.925 89.9115 202.584 91.3409 202.584C92.7489 202.584 93.9755 202.936 95.0209 203.64C96.0662 204.344 96.7595 205.304 97.1009 206.52H96.7489L97.0689 202.872H100.205C100.141 203.533 100.077 204.195 100.013 204.856C99.9702 205.496 99.9489 206.125 99.9489 206.744V219H96.7169V215.416H97.0689C96.7275 216.611 96.0235 217.56 94.9569 218.264C93.9115 218.947 92.7062 219.288 91.3409 219.288ZM92.1409 216.76C93.5275 216.76 94.6369 216.269 95.4689 215.288C96.3222 214.307 96.7489 212.856 96.7489 210.936C96.7489 209.016 96.3222 207.576 95.4689 206.616C94.6369 205.635 93.5275 205.144 92.1409 205.144C90.7329 205.144 89.6022 205.635 88.7489 206.616C87.9169 207.576 87.5009 209.016 87.5009 210.936C87.5009 212.856 87.9169 214.307 88.7489 215.288C89.5809 216.269 90.7115 216.76 92.1409 216.76ZM104.601 219V206.872C104.601 206.211 104.58 205.549 104.537 204.888C104.516 204.205 104.473 203.533 104.409 202.872H107.545L107.897 207.032H107.385C107.598 206.029 107.961 205.197 108.473 204.536C108.985 203.875 109.604 203.384 110.329 203.064C111.076 202.744 111.854 202.584 112.665 202.584C113.006 202.584 113.294 202.605 113.529 202.648C113.764 202.669 113.998 202.712 114.233 202.776L114.201 205.656C113.838 205.507 113.518 205.421 113.241 205.4C112.985 205.357 112.665 205.336 112.281 205.336C111.342 205.336 110.542 205.549 109.881 205.976C109.22 206.381 108.718 206.936 108.377 207.64C108.036 208.344 107.865 209.101 107.865 209.912V219H104.601ZM116.727 219V206.744C116.727 206.125 116.695 205.496 116.631 204.856C116.589 204.195 116.535 203.533 116.471 202.872H119.607L119.895 206.264H119.511C120.002 205.069 120.759 204.163 121.783 203.544C122.807 202.904 123.991 202.584 125.335 202.584C127.234 202.584 128.663 203.107 129.623 204.152C130.605 205.197 131.095 206.819 131.095 209.016V219H127.863V209.208C127.863 207.779 127.575 206.755 126.999 206.136C126.445 205.496 125.591 205.176 124.439 205.176C123.074 205.176 121.986 205.603 121.175 206.456C120.365 207.288 119.959 208.419 119.959 209.848V219H116.727ZM144.547 219V196.44H147.459L156.163 216.056H155.203L163.907 196.44H166.787V219H163.779V200.952H164.835L156.707 219H154.627L146.499 200.952H147.587V219H144.547ZM178.06 219.288C176.63 219.288 175.382 218.957 174.316 218.296C173.249 217.635 172.417 216.675 171.82 215.416C171.244 214.157 170.956 212.664 170.956 210.936C170.956 209.187 171.244 207.693 171.82 206.456C172.417 205.219 173.249 204.269 174.316 203.608C175.382 202.925 176.63 202.584 178.06 202.584C179.468 202.584 180.694 202.936 181.74 203.64C182.785 204.344 183.478 205.304 183.82 206.52H183.468L183.788 202.872H186.924C186.86 203.533 186.796 204.195 186.732 204.856C186.689 205.496 186.668 206.125 186.668 206.744V219H183.436V215.416H183.788C183.446 216.611 182.742 217.56 181.676 218.264C180.63 218.947 179.425 219.288 178.06 219.288ZM178.86 216.76C180.246 216.76 181.356 216.269 182.188 215.288C183.041 214.307 183.468 212.856 183.468 210.936C183.468 209.016 183.041 207.576 182.188 206.616C181.356 205.635 180.246 205.144 178.86 205.144C177.452 205.144 176.321 205.635 175.468 206.616C174.636 207.576 174.22 209.016 174.22 210.936C174.22 212.856 174.636 214.307 175.468 215.288C176.3 216.269 177.43 216.76 178.86 216.76ZM191.32 219V206.872C191.32 206.211 191.298 205.549 191.256 204.888C191.234 204.205 191.192 203.533 191.128 202.872H194.264L194.616 207.032H194.104C194.317 206.029 194.68 205.197 195.192 204.536C195.704 203.875 196.322 203.384 197.048 203.064C197.794 202.744 198.573 202.584 199.384 202.584C199.725 202.584 200.013 202.605 200.248 202.648C200.482 202.669 200.717 202.712 200.952 202.776L200.92 205.656C200.557 205.507 200.237 205.421 199.96 205.4C199.704 205.357 199.384 205.336 199 205.336C198.061 205.336 197.261 205.549 196.6 205.976C195.938 206.381 195.437 206.936 195.096 207.64C194.754 208.344 194.584 209.101 194.584 209.912V219H191.32ZM203.446 219V195.448H206.678V209.912H206.742L213.782 202.872H217.782L209.27 211.352L209.302 209.912L218.486 219H214.39L206.742 211.608H206.678V219H203.446ZM227.59 219.288C224.987 219.288 222.939 218.552 221.446 217.08C219.952 215.608 219.206 213.571 219.206 210.968C219.206 209.283 219.526 207.811 220.166 206.552C220.827 205.293 221.734 204.323 222.886 203.64C224.059 202.936 225.414 202.584 226.95 202.584C228.464 202.584 229.734 202.904 230.758 203.544C231.782 204.184 232.56 205.091 233.094 206.264C233.627 207.416 233.894 208.781 233.894 210.36V211.384H221.734V209.528H231.686L231.142 209.944C231.142 208.344 230.779 207.107 230.054 206.232C229.35 205.336 228.326 204.888 226.982 204.888C225.488 204.888 224.336 205.411 223.526 206.456C222.715 207.48 222.31 208.899 222.31 210.712V211.032C222.31 212.931 222.768 214.36 223.686 215.32C224.624 216.28 225.947 216.76 227.654 216.76C228.592 216.76 229.467 216.632 230.278 216.376C231.11 216.099 231.899 215.651 232.646 215.032L233.702 217.24C232.955 217.901 232.048 218.413 230.982 218.776C229.915 219.117 228.784 219.288 227.59 219.288ZM243.843 219.288C242.094 219.288 240.771 218.819 239.875 217.88C238.979 216.92 238.531 215.491 238.531 213.592V205.368H235.395V202.872H238.531V198.616L241.763 197.752V202.872H246.243V205.368H241.763V213.304C241.763 214.499 241.976 215.352 242.403 215.864C242.83 216.376 243.448 216.632 244.259 216.632C244.664 216.632 245.016 216.6 245.315 216.536C245.635 216.451 245.923 216.355 246.179 216.248V218.872C245.859 219 245.486 219.096 245.059 219.16C244.632 219.245 244.227 219.288 243.843 219.288ZM249.196 219V202.872H252.428V219H249.196ZM248.94 199.512V196.152H252.684V199.512H248.94ZM257.165 219V206.744C257.165 206.125 257.133 205.496 257.069 204.856C257.026 204.195 256.973 203.533 256.909 202.872H260.045L260.333 206.264H259.949C260.44 205.069 261.197 204.163 262.221 203.544C263.245 202.904 264.429 202.584 265.773 202.584C267.672 202.584 269.101 203.107 270.061 204.152C271.042 205.197 271.533 206.819 271.533 209.016V219H268.301V209.208C268.301 207.779 268.013 206.755 267.437 206.136C266.882 205.496 266.029 205.176 264.877 205.176C263.512 205.176 262.424 205.603 261.613 206.456C260.802 207.288 260.397 208.419 260.397 209.848V219H257.165ZM283.398 226.168C281.947 226.168 280.624 225.997 279.43 225.656C278.256 225.315 277.2 224.803 276.262 224.12L277.062 221.752C277.723 222.2 278.374 222.552 279.014 222.808C279.654 223.085 280.326 223.288 281.03 223.416C281.734 223.544 282.459 223.608 283.206 223.608C284.742 223.608 285.894 223.213 286.662 222.424C287.451 221.656 287.846 220.536 287.846 219.064V214.744H288.166C287.824 215.939 287.12 216.888 286.054 217.592C285.008 218.275 283.792 218.616 282.406 218.616C280.934 218.616 279.654 218.296 278.566 217.656C277.499 216.995 276.667 216.067 276.07 214.872C275.494 213.656 275.206 212.227 275.206 210.584C275.206 208.941 275.494 207.523 276.07 206.328C276.667 205.133 277.499 204.216 278.566 203.576C279.654 202.915 280.934 202.584 282.406 202.584C283.814 202.584 285.03 202.936 286.054 203.64C287.099 204.323 287.792 205.261 288.134 206.456L287.846 206.2L288.134 202.872H291.27C291.184 203.533 291.12 204.195 291.078 204.856C291.035 205.496 291.014 206.125 291.014 206.744V218.68C291.014 221.112 290.363 222.968 289.062 224.248C287.782 225.528 285.894 226.168 283.398 226.168ZM283.174 216.088C284.582 216.088 285.702 215.608 286.534 214.648C287.387 213.688 287.814 212.333 287.814 210.584C287.814 208.835 287.387 207.491 286.534 206.552C285.702 205.613 284.582 205.144 283.174 205.144C281.723 205.144 280.571 205.613 279.718 206.552C278.886 207.491 278.47 208.835 278.47 210.584C278.47 212.333 278.886 213.688 279.718 214.648C280.571 215.608 281.723 216.088 283.174 216.088Z" fill="#F6971B"/>
<path d="M107.714 253L109.954 238.9H111.614L109.594 251.56H116.734L116.494 253H107.714ZM123.015 253.18C121.908 253.18 120.988 252.96 120.255 252.52C119.535 252.067 119.028 251.427 118.735 250.6C118.441 249.76 118.381 248.78 118.555 247.66C118.728 246.633 119.048 245.76 119.515 245.04C119.995 244.307 120.601 243.747 121.335 243.36C122.081 242.973 122.928 242.78 123.875 242.78C124.795 242.78 125.555 242.98 126.155 243.38C126.768 243.78 127.195 244.34 127.435 245.06C127.688 245.767 127.741 246.593 127.595 247.54L127.515 248.12H119.735L119.895 247.1H126.615L126.255 247.38C126.415 246.287 126.288 245.447 125.875 244.86C125.461 244.273 124.768 243.98 123.795 243.98C123.088 243.98 122.481 244.14 121.975 244.46C121.468 244.767 121.061 245.193 120.755 245.74C120.448 246.273 120.241 246.88 120.135 247.56L120.075 248.04C119.901 249.267 120.075 250.213 120.595 250.88C121.128 251.533 121.988 251.86 123.175 251.86C123.761 251.86 124.335 251.773 124.895 251.6C125.455 251.413 125.975 251.113 126.455 250.7L127.015 251.84C126.481 252.267 125.868 252.6 125.175 252.84C124.481 253.067 123.761 253.18 123.015 253.18ZM133.174 253.18C132.254 253.18 131.48 252.967 130.854 252.54C130.227 252.1 129.787 251.473 129.534 250.66C129.28 249.847 129.24 248.867 129.414 247.72C129.68 246.107 130.28 244.88 131.214 244.04C132.147 243.2 133.267 242.78 134.574 242.78C135.454 242.78 136.194 243.007 136.794 243.46C137.394 243.913 137.76 244.527 137.894 245.3L137.674 245.34L138.254 242.96H139.814C139.72 243.347 139.62 243.74 139.514 244.14C139.42 244.527 139.347 244.907 139.294 245.28L138.074 253H136.454L136.834 250.6H137.134C136.787 251.4 136.274 252.033 135.594 252.5C134.927 252.953 134.12 253.18 133.174 253.18ZM133.614 251.86C134.534 251.86 135.327 251.533 135.994 250.88C136.66 250.227 137.094 249.273 137.294 248.02C137.507 246.713 137.374 245.733 136.894 245.08C136.414 244.413 135.687 244.08 134.714 244.08C133.78 244.08 132.98 244.407 132.314 245.06C131.66 245.713 131.234 246.667 131.034 247.92C130.834 249.227 130.967 250.213 131.434 250.88C131.9 251.533 132.627 251.86 133.614 251.86ZM141.166 253L142.386 245.38C142.452 244.98 142.506 244.573 142.546 244.16C142.586 243.747 142.612 243.347 142.626 242.96H144.206L144.046 245.4L143.726 245.42C143.952 244.82 144.252 244.327 144.626 243.94C145.012 243.553 145.452 243.267 145.946 243.08C146.439 242.88 146.939 242.78 147.446 242.78C147.619 242.78 147.779 242.787 147.926 242.8C148.086 242.813 148.239 242.84 148.386 242.88L148.106 244.34C147.946 244.273 147.779 244.233 147.606 244.22C147.446 244.193 147.259 244.18 147.046 244.18C146.446 244.18 145.912 244.307 145.446 244.56C144.979 244.813 144.599 245.16 144.306 245.6C144.012 246.04 143.826 246.533 143.746 247.08L142.806 253H141.166ZM148.471 253L149.691 245.28C149.745 244.907 149.785 244.527 149.811 244.14C149.851 243.74 149.878 243.347 149.891 242.96H151.471L151.311 245.16L151.031 245.18C151.431 244.393 151.978 243.8 152.671 243.4C153.378 242.987 154.178 242.78 155.071 242.78C156.311 242.78 157.171 243.133 157.651 243.84C158.131 244.533 158.265 245.547 158.051 246.88L157.091 253H155.471L156.431 246.9C156.591 245.9 156.505 245.187 156.171 244.76C155.851 244.32 155.291 244.1 154.491 244.1C153.545 244.1 152.765 244.387 152.151 244.96C151.538 245.533 151.158 246.287 151.011 247.22L150.091 253H148.471ZM165.605 253L167.845 238.9H169.285L172.925 251.68H172.325L180.025 238.9H181.465L179.225 253H177.705L179.605 241.04H180.245L172.965 253H171.905L168.425 241.04H169.005L167.105 253H165.605ZM186.833 253.18C185.833 253.18 185 252.967 184.333 252.54C183.666 252.113 183.193 251.493 182.913 250.68C182.646 249.867 182.6 248.88 182.773 247.72C182.946 246.653 183.28 245.753 183.773 245.02C184.28 244.273 184.906 243.713 185.653 243.34C186.4 242.967 187.24 242.78 188.173 242.78C189.186 242.78 190.02 242.993 190.673 243.42C191.34 243.847 191.806 244.467 192.073 245.28C192.353 246.08 192.4 247.06 192.213 248.22C192.04 249.287 191.7 250.193 191.193 250.94C190.7 251.673 190.08 252.233 189.333 252.62C188.6 252.993 187.766 253.18 186.833 253.18ZM186.953 251.86C187.873 251.86 188.66 251.533 189.313 250.88C189.98 250.227 190.413 249.273 190.613 248.02C190.826 246.713 190.693 245.733 190.213 245.08C189.733 244.413 189.013 244.08 188.053 244.08C187.12 244.08 186.326 244.407 185.673 245.06C185.02 245.713 184.593 246.667 184.393 247.92C184.193 249.227 184.32 250.213 184.773 250.88C185.24 251.533 185.966 251.86 186.953 251.86ZM193.959 253L195.179 245.38C195.245 244.98 195.299 244.573 195.339 244.16C195.379 243.747 195.405 243.347 195.419 242.96H196.999L196.839 245.4L196.519 245.42C196.745 244.82 197.045 244.327 197.419 243.94C197.805 243.553 198.245 243.267 198.739 243.08C199.232 242.88 199.732 242.78 200.239 242.78C200.412 242.78 200.572 242.787 200.719 242.8C200.879 242.813 201.032 242.84 201.179 242.88L200.899 244.34C200.739 244.273 200.572 244.233 200.399 244.22C200.239 244.193 200.052 244.18 199.839 244.18C199.239 244.18 198.705 244.307 198.239 244.56C197.772 244.813 197.392 245.16 197.099 245.6C196.805 246.04 196.619 246.533 196.539 247.08L195.599 253H193.959ZM205.827 253.18C204.721 253.18 203.801 252.96 203.067 252.52C202.347 252.067 201.841 251.427 201.547 250.6C201.254 249.76 201.194 248.78 201.367 247.66C201.541 246.633 201.861 245.76 202.327 245.04C202.807 244.307 203.414 243.747 204.147 243.36C204.894 242.973 205.741 242.78 206.687 242.78C207.607 242.78 208.367 242.98 208.967 243.38C209.581 243.78 210.007 244.34 210.247 245.06C210.501 245.767 210.554 246.593 210.407 247.54L210.327 248.12H202.547L202.707 247.1H209.427L209.067 247.38C209.227 246.287 209.101 245.447 208.687 244.86C208.274 244.273 207.581 243.98 206.607 243.98C205.901 243.98 205.294 244.14 204.787 244.46C204.281 244.767 203.874 245.193 203.567 245.74C203.261 246.273 203.054 246.88 202.947 247.56L202.887 248.04C202.714 249.267 202.887 250.213 203.407 250.88C203.941 251.533 204.801 251.86 205.987 251.86C206.574 251.86 207.147 251.773 207.707 251.6C208.267 251.413 208.787 251.113 209.267 250.7L209.827 251.84C209.294 252.267 208.681 252.6 207.987 252.84C207.294 253.067 206.574 253.18 205.827 253.18Z" fill="#FFC809"/>
<path d="M106.754 255.14H211.247V256.02H106.754V255.14Z" fill="#FFC809"/>
</svg>
