<svg width="319" height="414" viewBox="0 0 319 414" fill="none" xmlns="http://www.w3.org/2000/svg">
<path d="M106.048 60.4955L106.072 60.4805C115.44 54.4807 129.631 42.3273 141.358 31.0948C147.254 25.4474 152.647 19.9182 156.6 15.3787C158.567 13.12 160.257 11.0154 161.484 9.20914C161.734 8.84253 161.975 8.47156 162.203 8.09946C163.833 10.1046 165.939 12.9771 168.557 16.8625L168.561 16.8698L168.566 16.877C174.154 25.1086 182.747 34.6099 191.498 42.8599C200.188 51.0538 209.456 58.4142 216.502 62.0928C218.69 63.2517 220.876 64.6036 222.612 65.8337C223.482 66.4505 224.189 67.0019 224.705 67.4513C224.849 67.5765 224.964 67.6815 225.053 67.7664C225.133 68.1333 225.226 68.6509 225.326 69.3348C225.564 70.9614 225.798 73.2242 226.003 75.9932C226.412 81.5141 226.688 88.7959 226.688 96.5146V124.742V129.167L231.081 129.705L244.779 131.382L244.792 131.383L244.805 131.385C269.502 134.274 294.814 151.479 305.487 172.247C307.495 176.416 309.847 186.11 311.593 197.107C313.321 207.99 314.301 219.151 313.918 225.877C313.57 230.84 310.499 238.807 305.496 247.44C300.578 255.927 294.231 264.307 288.105 270.043C273.782 283.299 258.508 290.42 239.056 293.352C239.054 293.352 239.052 293.352 239.05 293.352L223.967 295.586L219.7 296.219V300.533V326.803C219.7 334.044 219.63 341.126 219.492 346.697C219.422 349.485 219.336 351.865 219.236 353.684C219.185 354.595 219.132 355.335 219.079 355.899C219.061 356.096 219.044 356.254 219.029 356.378C218.987 356.426 218.938 356.48 218.882 356.54C218.369 357.087 217.515 357.839 216.309 358.732C213.917 360.502 210.58 362.5 206.94 364.19L206.903 364.206L206.868 364.224C197.423 368.793 184.639 379.061 172.999 391.265L172.988 391.276L172.978 391.287L158.717 406.422L153.659 400.224M153.659 400.224C153.657 400.222 153.656 400.22 153.654 400.219L153.659 400.224Z" fill="#F6971B" stroke="#FFC809" stroke-width="10"/>
<path d="M97.4089 199.408C94.4933 200.692 93.9467 202.158 95.7689 204.175C97.6822 206.283 96.5889 206.558 94.4933 204.45C93.1267 203.075 92.9444 203.075 91.3955 205C90.3933 206.192 89.9378 207.75 90.2111 208.483C90.4844 209.125 90.8489 210.683 91.0311 211.692C91.2133 212.792 91.1222 213.158 90.94 212.517C90.6667 211.875 90.12 211.6 89.6644 211.875C89.2089 212.15 89.1178 211.692 89.3911 210.775C89.8467 209.308 89.7555 209.308 88.9355 210.592C87.2044 213.342 85.8378 225.442 86.3844 233.875C87.1133 244.325 87.66 246.342 89.5733 245.517C90.8489 245.058 90.94 245.242 89.9378 246.433C88.48 248.267 89.3 250.558 92.8533 254.317C97.8644 259.633 106.702 260.275 113.627 255.783C117.727 253.125 119.731 249.55 120.46 243.408L121.007 238.825L116.087 239.1C111.349 239.375 111.258 239.467 110.438 242.583C109.709 245.7 109.162 248.725 108.98 250.1C108.889 250.558 108.16 250.833 107.34 250.833C105.973 250.833 106.064 250.65 107.613 249.55C109.071 248.358 108.798 248.358 105.336 249.55C103.149 250.283 101.144 250.65 100.871 250.375C100.598 250.1 100.962 249.917 101.691 249.917C102.42 249.917 102.147 249.367 100.962 248.542C98.5022 246.8 97.0444 241.942 97.0444 235.433V230.667H108.798C115.358 230.667 120.824 230.3 121.189 229.842C122.009 228.375 120.551 216 119.64 216.642C119.093 216.917 119.002 216.275 119.367 214.992C119.822 213.25 119.731 213.067 118.911 214.167C118.091 215.267 118 214.992 118.364 212.792C119.002 209.492 116.087 203.808 112.351 201.058C109.527 198.95 100.689 198.033 97.4089 199.408ZM107.249 207.475C106.338 207.842 106.338 208.208 107.158 209.217C107.704 209.95 108.524 210.317 108.889 210.042C109.344 209.767 109.436 210.5 109.071 211.6C108.798 212.608 108.98 213.342 109.436 213.067C109.891 212.7 110.347 215.358 110.438 219.025C110.529 222.6 110.256 224.983 109.891 224.342C109.344 223.517 107.249 223.242 102.876 223.517L96.4978 223.792L97.1355 218.292C97.7733 211.417 99.14 208.85 102.329 208.117C103.696 207.842 105.244 207.475 105.7 207.292C107.158 206.742 108.524 206.925 107.249 207.475ZM94.6755 212.058C93.9467 217.833 93.4 218.2 93.4 213.067C93.4 209.492 93.8555 207.75 94.9489 207.75C95.1311 207.75 95.04 209.675 94.6755 212.058ZM97.0444 212.333C96.4978 213.433 95.7689 214.075 95.4955 213.892C95.3133 213.617 95.5867 212.517 96.1333 211.417C96.68 210.317 97.4089 209.675 97.6822 209.858C97.8644 210.133 97.5911 211.233 97.0444 212.333ZM118.911 219.3C119.549 221.042 119.731 222.783 119.458 223.058C119.184 223.425 118.911 222.875 118.82 221.867C118.729 220.308 118.638 220.4 118.182 222.142C117.544 223.975 117.362 224.067 115.267 222.783C113.991 222.05 113.627 221.592 114.356 221.775C115.813 222.142 118 220.4 118 218.842C118 218.292 117.636 217.833 117.089 217.833C116.633 217.833 116.178 217.375 116.178 216.917C116.178 214.717 117.909 216.275 118.911 219.3ZM114.356 224.892C114.356 225.35 113.9 226.267 113.444 227C112.716 228.1 112.533 228.008 112.533 226.267C112.533 225.167 112.989 224.25 113.444 224.25C113.991 224.25 114.356 224.525 114.356 224.892ZM120.733 226.175C120.733 227.367 117.362 227.183 116.542 225.9C116.087 225.167 116.36 225.075 117.362 225.442C118.273 225.717 118.911 225.625 118.911 225.075C118.911 224.525 119.367 224.433 119.822 224.708C120.369 224.983 120.733 225.625 120.733 226.175ZM96.4067 227.825C96.5889 228.742 96.4978 230.117 96.0422 230.758C95.4955 231.675 95.2222 231.125 95.2222 229.017C95.2222 225.717 95.6778 225.167 96.4067 227.825ZM117.453 243.683C118.273 246.983 118.091 247.808 116.907 245.792C115.54 243.5 115.176 241.667 116.178 241.667C116.542 241.667 117.089 242.583 117.453 243.683ZM99.7778 249.733C99.7778 250.008 98.9578 249.092 97.9555 247.808C96.9533 246.525 96.1333 244.783 96.1333 243.867C96.1333 242.858 96.9533 243.775 97.9555 245.792C98.9578 247.808 99.7778 249.55 99.7778 249.733ZM117.089 249C117.909 250.467 117.818 250.833 116.542 250.833C115.631 250.833 115.267 250.375 115.54 249.55C115.813 248.817 115.631 247.992 114.993 247.717C114.173 247.442 114.173 247.258 114.993 247.258C115.631 247.167 116.542 247.992 117.089 249ZM96.9533 250.742C97.6822 252.117 97.4089 252.575 95.4044 253.492C93.4 254.317 93.2178 254.317 94.3111 253.4C95.1311 252.758 95.5867 251.475 95.4044 250.558C94.9489 248.542 95.86 248.542 96.9533 250.742ZM116.178 253.125C114.902 254.683 113.444 254.958 113.444 253.675C113.444 253.217 114.173 252.575 115.084 252.392C115.904 252.117 116.816 251.933 116.998 251.842C117.18 251.842 116.816 252.392 116.178 253.125Z" fill="#6B6B6B"/>
<path d="M167.929 199.958C166.562 200.692 165.013 202.158 164.467 203.167C163.009 205.825 161.733 205.367 161.733 202.25V199.5H156.267H150.8L150.982 228.558L151.256 257.708L156.54 257.983L161.733 258.258L161.916 236.167C162.007 224.067 162.098 213.433 162.098 212.517C162.189 210.225 165.651 207.75 168.84 207.75C171.756 207.75 174.398 210.133 174.58 212.883C174.671 214.258 174.762 214.258 175.218 212.517C175.582 211.325 175.673 219.942 175.582 231.675C175.309 248.725 175.491 253.033 176.493 253.675C177.404 254.225 177.404 254.5 176.584 254.5C175.947 254.5 175.4 255.325 175.4 256.333C175.4 257.983 176.038 258.167 180.411 258.167H185.422V236.717C185.422 214.625 185.969 210.317 189.067 208.667C191.527 207.383 194.807 207.567 196.902 209.033C198.542 210.225 198.633 211.967 199.089 234.058L199.544 257.708L204.373 257.983L209.202 258.258L208.929 231.217L208.656 204.083L206.287 201.7C204.647 200.05 202.551 199.133 199.727 198.858C194.989 198.308 190.524 199.133 191.344 200.417C191.618 200.875 191.253 201.058 190.524 200.783C189.704 200.508 188.429 201.425 187.153 203.167L185.058 206.008L182.233 202.617C179.773 199.775 178.771 199.225 174.944 198.95C171.938 198.675 169.569 199.042 167.929 199.958ZM206.378 203.533C206.378 204.083 205.922 203.9 205.467 203.167C204.647 201.975 204.464 201.975 203.736 203.167C203.189 203.9 202.551 204.175 202.278 203.9C201.913 203.533 202.187 202.708 202.824 201.975C204.191 200.508 206.378 201.517 206.378 203.533ZM152.349 240.933C152.258 247.625 152.076 242.217 152.076 228.833C152.076 215.45 152.258 210.042 152.349 216.642C152.531 223.333 152.531 234.333 152.349 240.933ZM188.611 207.75C188.429 208.117 187.244 208.3 186.151 208.208C182.507 207.842 182.142 207.567 184.511 206.925C186.971 206.192 189.34 206.65 188.611 207.75ZM155.993 240.017C155.811 242.217 155.629 240.475 155.629 236.167C155.629 231.858 155.811 230.117 155.993 232.225C156.176 234.425 156.176 237.908 155.993 240.017Z" fill="#6B6B6B"/>
<path d="M101.418 198.308C102.511 198.492 104.333 198.492 105.518 198.308C106.611 198.125 105.7 197.942 103.422 197.942C101.144 197.942 100.233 198.125 101.418 198.308Z" fill="#969696"/>
<path d="M172.029 198.308C172.849 198.492 174.307 198.492 175.218 198.308C176.038 198.033 175.309 197.85 173.578 197.85C171.847 197.85 171.118 198.033 172.029 198.308Z" fill="#969696"/>
<path d="M195.262 198.308C196.356 198.492 198.178 198.492 199.362 198.308C200.456 198.125 199.544 197.942 197.267 197.942C194.989 197.942 194.078 198.125 195.262 198.308Z" fill="#969696"/>
<path d="M156.084 199.225C161.642 199.592 161.733 199.592 161.733 202.25C161.733 205 162.918 205.825 164.102 203.9C164.467 203.35 164.375 203.167 163.738 203.533C163.191 203.9 162.644 203.167 162.462 201.608C162.189 199.133 162.007 199.042 156.267 198.95L150.344 198.858L156.084 199.225Z" fill="#969696"/>
<path d="M92.8533 202.433L90.2111 205.458L93.2177 202.8C95.9511 200.233 96.5888 199.5 95.8599 199.5C95.6777 199.5 94.4022 200.875 92.8533 202.433Z" fill="#969696"/>
<path d="M209.475 232.5C209.475 246.892 209.658 252.758 209.749 245.517C209.931 238.367 209.931 226.633 209.749 219.392C209.658 212.242 209.475 218.108 209.475 232.5Z" fill="#969696"/>
<path d="M103.604 208.392C104.971 208.575 106.793 209.675 107.522 210.775C108.251 211.875 108.889 212.333 108.889 211.783C108.889 210.042 105.609 207.75 103.331 207.842C101.327 208.025 101.327 208.025 103.604 208.392Z" fill="#969696"/>
<path d="M162.098 235.708C162.098 247.808 162.28 252.667 162.371 246.433C162.553 240.2 162.553 230.3 162.371 224.433C162.28 218.567 162.098 223.608 162.098 235.708Z" fill="#969696"/>
<path d="M174.853 236.167C174.853 248.542 175.035 253.583 175.127 247.35C175.309 241.208 175.309 231.125 175.127 224.892C175.035 218.75 174.853 223.792 174.853 236.167Z" fill="#969696"/>
<path d="M185.787 236.167C185.787 248.542 185.969 253.583 186.06 247.35C186.242 241.208 186.242 231.125 186.06 224.892C185.969 218.75 185.787 223.792 185.787 236.167Z" fill="#969696"/>
<path d="M109.891 219.85C109.8 222.325 109.618 222.325 103.24 222.692L96.5889 222.967L103.24 223.15C110.164 223.333 111.349 222.692 110.438 219.025C110.164 217.925 109.982 218.2 109.891 219.85Z" fill="#969696"/>
<path d="M111.349 238.642C111.075 239.008 113.08 239.192 115.722 239.1C119.822 238.825 120.642 239.008 121.098 240.475C121.462 241.85 121.553 241.85 121.371 240.292C121.189 238.733 120.369 238.458 116.451 238.183C113.9 238 111.622 238.275 111.349 238.642Z" fill="#969696"/>
<path d="M219.589 120.208C219.133 120.392 215.489 121.217 211.662 122.042C203.553 123.783 202.005 125.617 205.467 129.375L207.562 131.575L199.18 141.658C194.533 147.158 190.16 151.925 189.249 152.2C187.791 152.567 176.676 153.85 171.847 154.033C170.571 154.125 169.478 154.675 169.205 155.317C169.022 155.958 168.385 156.417 167.747 156.417C166.562 156.417 162.098 161.917 162.462 163.017C162.553 163.475 162.189 163.75 161.642 163.75C161.187 163.75 161.005 164.208 161.278 164.667C161.642 165.217 161.369 165.492 160.64 165.4C160.002 165.217 159.547 165.858 159.547 166.683C159.638 167.6 159.365 168.15 159 168.058C158.545 167.967 156.176 170.442 153.625 173.65C148.613 179.883 148.158 182.633 151.893 185.2C154.262 186.85 155.265 186.392 158.089 182.45C159.365 180.617 161.005 178.508 161.733 177.683C162.553 176.858 165.378 173.375 168.02 169.983C170.753 166.592 173.578 163.567 174.307 163.292C175.127 163.017 179.865 162.375 184.876 161.917C189.978 161.367 194.26 160.542 194.351 160.083C194.533 159.533 194.989 159.35 195.445 159.625C195.9 159.9 197.905 157.883 199.909 155.317C201.913 152.658 203.918 150 204.373 149.542C204.738 148.992 205.193 148.35 205.376 147.983C205.558 147.708 207.653 145.233 210.205 142.575C214.213 138.267 214.942 137.808 216.491 138.817C217.493 139.458 218.769 139.733 219.316 139.367C219.953 139 220.045 139.092 219.68 139.733C219.225 140.467 219.68 140.833 220.865 140.833C222.322 140.833 222.778 140.192 222.869 138.267C222.869 136.892 223.142 132.492 223.325 128.55C223.78 120.667 222.96 119.017 219.589 120.208Z" fill="#6B96C1"/>
<path d="M131.393 162.558C131.029 162.833 130.756 184.1 130.756 209.767V256.333L133.216 257.342C135.038 257.983 136.313 257.983 137.771 257.158L139.867 255.967V208.942L139.776 161.917H135.858C133.762 161.917 131.667 162.192 131.393 162.558Z" fill="#6B96C1"/>
<path d="M130.3 162.1C130.027 162.742 129.936 184.558 130.027 210.5L130.3 257.708L132.396 257.8C134.036 257.892 134.127 257.892 132.578 257.525C130.756 257.158 130.756 256.517 130.756 209.492V161.917H135.311H139.867V209.492C139.867 251.292 139.684 257.158 138.5 257.525C137.498 257.892 137.589 257.892 138.682 257.8C140.231 257.708 140.322 254.958 140.322 209.583V161.458L135.493 161.183C132.213 161 130.573 161.275 130.3 162.1Z" fill="#9696C1"/>
<path d="M180.684 162.558C181.778 162.742 183.418 162.742 184.329 162.558C185.149 162.283 184.238 162.1 182.233 162.192C180.229 162.192 179.5 162.375 180.684 162.558Z" fill="#9696C1"/>
<path d="M210.387 231.583C210.387 244.417 210.569 249.733 210.66 243.317C210.842 236.808 210.842 226.358 210.66 219.942C210.569 213.433 210.387 218.75 210.387 231.583Z" fill="#C1C1C1"/>
<path d="M198.633 235.892V258.625H204.464C208.473 258.625 210.387 258.258 210.569 257.433C210.66 256.792 210.569 256.7 210.295 257.25C210.113 257.708 207.471 258.167 204.464 258.167H199.089L198.815 235.708L198.542 213.25L198.633 235.892Z" fill="#C1C1C1"/>
<path d="M97.2266 219.667C97.2266 221.408 97.4088 222.142 97.6821 221.225C97.8643 220.4 97.8643 218.933 97.6821 218.017C97.4088 217.192 97.2266 217.925 97.2266 219.667Z" fill="#C1C1C1"/>
<path d="M85.4733 222.875C85.4733 224.892 85.6555 225.625 85.8377 224.433C86.02 223.333 86.02 221.683 85.8377 220.767C85.5644 219.942 85.3822 220.858 85.4733 222.875Z" fill="#C1C1C1"/>
<path d="M85.4734 234.333C85.4734 237.083 85.6556 238.275 85.8378 236.808C86.0201 235.433 86.0201 233.233 85.8378 231.767C85.6556 230.392 85.4734 231.583 85.4734 234.333Z" fill="#C1C1C1"/>
<path d="M97.4089 231.95C97.1355 232.683 97.0444 234.792 97.3177 236.717C97.5911 240.108 97.6822 240.108 97.7733 235.983L97.9555 231.675L110.073 231.308L122.1 231.033L109.982 230.85C100.324 230.667 97.7733 230.942 97.4089 231.95Z" fill="#C1C1C1"/>
<path d="M156.267 258.167L150.344 258.808L155.993 258.9C159.091 258.992 161.915 258.625 162.189 258.167C162.462 257.617 162.644 257.342 162.462 257.433C162.28 257.525 159.547 257.8 156.267 258.167Z" fill="#C1C1C1"/>
<path d="M176.949 258.808C178.589 258.992 181.504 258.992 183.327 258.808C185.24 258.625 183.964 258.442 180.411 258.442C176.949 258.442 175.4 258.625 176.949 258.808Z" fill="#C1C1C1"/>
<path d="M101.873 259.725C103.24 259.908 105.244 259.908 106.429 259.725C107.522 259.542 106.429 259.358 103.878 259.358C101.418 259.358 100.416 259.542 101.873 259.725Z" fill="#C1C1C1"/>
</svg>
